<svg width="248" height="27" viewBox="0 0 248 27" fill="none" xmlns="http://www.w3.org/2000/svg">
<path d="M30.3616 15.9866C30.3616 19.3037 32.2859 21.1014 35.1937 21.1014C38.0803 21.1014 40.0259 19.2824 40.0259 15.9866V0.471191H45.2216V16.543C45.2216 21.9575 41.2874 25.5314 35.1724 25.5314C29.0786 25.5314 25.1232 21.936 25.1232 16.5002V0.471191H30.3188V15.9866H30.3616Z" fill="url(#paint0_linear_10107_247)"/>
<path d="M30.3616 15.9866C30.3616 19.3037 32.2859 21.1014 35.1937 21.1014C38.0803 21.1014 40.0259 19.2824 40.0259 15.9866V0.471191H45.2216V16.543C45.2216 21.9575 41.2874 25.5314 35.1724 25.5314C29.0786 25.5314 25.1232 21.936 25.1232 16.5002V0.471191H30.3188V15.9866H30.3616Z" fill="white" fill-opacity="0.2"/>
<path d="M47.7234 25.0606L55.8483 0.471191H62.0275L70.1308 25.0606H64.5719L62.7545 18.9614H54.7579L52.9191 25.0606H47.7234ZM58.6706 5.37194L55.7841 15.1093H61.7495L58.9058 5.37194H58.6706Z" fill="url(#paint1_linear_10107_247)"/>
<path d="M47.7234 25.0606L55.8483 0.471191H62.0275L70.1308 25.0606H64.5719L62.7545 18.9614H54.7579L52.9191 25.0606H47.7234ZM58.6706 5.37194L55.7841 15.1093H61.7495L58.9058 5.37194H58.6706Z" fill="white" fill-opacity="0.2"/>
<path d="M75.7108 25.0606V4.79413H68.8262V0.471191H87.8131V4.79413H80.9281V25.0606H75.7108Z" fill="url(#paint2_linear_10107_247)"/>
<path d="M75.7108 25.0606V4.79413H68.8262V0.471191H87.8131V4.79413H80.9281V25.0606H75.7108Z" fill="white" fill-opacity="0.2"/>
<path d="M86.4879 25.0606L94.6128 0.471191H100.792L108.896 25.0606H103.337L101.519 18.9614H93.5225L91.683 25.0606H86.4879ZM97.4347 5.37194L94.5485 15.1093H100.514L97.6701 5.37194H97.4347Z" fill="url(#paint3_linear_10107_247)"/>
<path d="M86.4879 25.0606L94.6128 0.471191H100.792L108.896 25.0606H103.337L101.519 18.9614H93.5225L91.683 25.0606H86.4879ZM97.4347 5.37194L94.5485 15.1093H100.514L97.6701 5.37194H97.4347Z" fill="white" fill-opacity="0.2"/>
<path d="M21.3385 14.2743V11.2996C21.3385 4.38713 17.1906 0 10.6693 0C4.14798 0 0 4.34433 0 11.2996V14.2743C0 21.1866 4.14798 25.5309 10.6479 25.5309C11.8666 25.5309 13.0427 25.3383 14.0689 24.996L11.6742 21.3579C11.3107 21.4649 10.9258 21.5505 10.5195 21.5505C7.39793 21.4863 5.11013 19.1321 5.11013 14.3598V11.2568C5.11013 6.6342 7.48343 4.28013 10.6693 4.28013C13.8765 4.28013 16.2284 6.6128 16.2284 11.2568V14.3598C16.2284 16.2217 15.8222 17.6984 15.1593 18.7683L18.003 22.8345L18.0245 22.8773C20.1412 20.9298 21.3385 17.9766 21.3385 14.2743Z" fill="url(#paint4_linear_10107_247)"/>
<path d="M21.3385 14.2743V11.2996C21.3385 4.38713 17.1906 0 10.6693 0C4.14798 0 0 4.34433 0 11.2996V14.2743C0 21.1866 4.14798 25.5309 10.6479 25.5309C11.8666 25.5309 13.0427 25.3383 14.0689 24.996L11.6742 21.3579C11.3107 21.4649 10.9258 21.5505 10.5195 21.5505C7.39793 21.4863 5.11013 19.1321 5.11013 14.3598V11.2568C5.11013 6.6342 7.48343 4.28013 10.6693 4.28013C13.8765 4.28013 16.2284 6.6128 16.2284 11.2568V14.3598C16.2284 16.2217 15.8222 17.6984 15.1593 18.7683L18.003 22.8345L18.0245 22.8773C20.1412 20.9298 21.3385 17.9766 21.3385 14.2743Z" fill="white" fill-opacity="0.2"/>
<path d="M17.426 26.0446C16.6991 26.5368 15.7154 26.3442 15.2237 25.6166L11.9096 20.7372C11.4178 20.0096 11.6102 19.0252 12.3372 18.533C13.0642 18.0407 14.0477 18.2333 14.5395 18.961L17.8536 23.8404C18.324 24.568 18.1315 25.5524 17.426 26.0446Z" fill="url(#paint5_linear_10107_247)"/>
<path d="M17.426 26.0446C16.6991 26.5368 15.7154 26.3442 15.2237 25.6166L11.9096 20.7372C11.4178 20.0096 11.6102 19.0252 12.3372 18.533C13.0642 18.0407 14.0477 18.2333 14.5395 18.961L17.8536 23.8404C18.324 24.568 18.1315 25.5524 17.426 26.0446Z" fill="white" fill-opacity="0.2"/>
<path d="M114.68 25.0703L122.372 0H128.202L135.894 25.0703H130.616L128.906 18.8366H121.341L119.607 25.0703H114.68ZM125.036 5.01406L122.322 14.9608H127.952L125.263 5.01406H125.036Z" fill="white"/>
<path d="M153.035 8.25231C152.72 5.71915 150.832 4.25672 148.262 4.25672C145.193 4.25672 143.016 6.37202 143.016 10.9943V13.9453C143.016 17.9148 144.511 20.8135 148.314 20.8135C151.33 20.8135 153.193 18.9332 153.193 16.6351V15.2772H148.445V11.5166H158.072V16.2956C158.072 20.1868 155.501 25.0703 148.235 25.0703C140.995 25.0703 137.822 20.3174 137.822 13.9453V10.9421C137.822 4.30895 141.704 0 148.314 0C154.714 0 157.861 4.07392 158.019 8.25231H153.035Z" fill="white"/>
<path d="M177.357 25.0703H161.929V0H177.357V4.30937H166.91V10.4076H176.743V14.4188H166.91V20.7881H177.357V25.0703Z" fill="white"/>
<path d="M182.177 25.0703V0H186.328L196.537 16.0992H196.718V0H201.462V25.0703H197.337L187.102 8.88979H186.92V25.0703H182.177Z" fill="white"/>
<path d="M210.621 13.9453C210.621 18.5937 212.646 20.7874 215.817 20.7874C218.935 20.7874 220.533 18.7243 220.533 16.2174H225.568V16.7397C225.568 21.1269 222.024 25.0703 215.737 25.0703C209.184 25.0703 205.319 20.9702 205.319 13.9193V11.2033C205.319 4.15226 209.21 0 215.764 0C221.865 0 225.568 3.89112 225.568 8.56565V9.08799H220.56C220.56 6.60707 218.908 4.30895 215.817 4.30895C212.7 4.30895 210.648 6.58094 210.648 11.2294V13.9453H210.621Z" fill="white"/>
<path d="M233.637 25.0703V15.8011L225.568 0H231.19L236.135 10.5159H236.318L241.289 0H246.781L238.713 15.6655V25.0703H233.637Z" fill="white"/>
<defs>
<linearGradient id="paint0_linear_10107_247" x1="35.1724" y1="0.471333" x2="35.1724" y2="25.5315" gradientUnits="userSpaceOnUse">
<stop stop-color="#F4A21A"/>
<stop offset="1" stop-color="#FFDD00"/>
</linearGradient>
<linearGradient id="paint1_linear_10107_247" x1="58.9273" y1="0.47133" x2="58.9273" y2="25.0606" gradientUnits="userSpaceOnUse">
<stop stop-color="#F4A21A"/>
<stop offset="1" stop-color="#FFDD00"/>
</linearGradient>
<linearGradient id="paint2_linear_10107_247" x1="78.3194" y1="0.47133" x2="78.3194" y2="25.0606" gradientUnits="userSpaceOnUse">
<stop stop-color="#F4A21A"/>
<stop offset="1" stop-color="#FFDD00"/>
</linearGradient>
<linearGradient id="paint3_linear_10107_247" x1="97.6915" y1="0.47133" x2="97.6915" y2="25.0606" gradientUnits="userSpaceOnUse">
<stop stop-color="#F4A21A"/>
<stop offset="1" stop-color="#FFDD00"/>
</linearGradient>
<linearGradient id="paint4_linear_10107_247" x1="10.6694" y1="0.000143976" x2="10.6694" y2="25.5311" gradientUnits="userSpaceOnUse">
<stop stop-color="#F4A21A"/>
<stop offset="1" stop-color="#FFDD00"/>
</linearGradient>
<linearGradient id="paint5_linear_10107_247" x1="14.8741" y1="18.2603" x2="14.8741" y2="26.3174" gradientUnits="userSpaceOnUse">
<stop stop-color="#F4A21A"/>
<stop offset="1" stop-color="#FFDD00"/>
</linearGradient>
</defs>
</svg>
