<svg width="275" height="30" viewBox="0 0 275 30" fill="none" xmlns="http://www.w3.org/2000/svg">
<g clip-path="url(#clip0_10209_820)">
<path d="M33.7351 17.7627C33.7351 21.4484 35.8733 23.4458 39.1041 23.4458C42.3114 23.4458 44.4732 21.4247 44.4732 17.7627V0.523376H50.2462V18.381C50.2462 24.3971 45.875 28.3681 39.0804 28.3681C32.3096 28.3681 27.9147 24.3732 27.9147 18.3334V0.523376H33.6876V17.7627H33.7351Z" fill="url(#paint0_linear_10209_820)"/>
<path d="M53.026 27.8449L62.0537 0.523376H68.9195L77.9231 27.8449H71.7465L69.7272 21.0681H60.8421L58.799 27.8449H53.026ZM65.1896 5.96865L61.9824 16.7879H68.6106L65.4509 5.96865H65.1896Z" fill="url(#paint1_linear_10209_820)"/>
<path d="M84.1231 27.8449V5.32664H76.4735V0.523376H97.5701V5.32664H89.9201V27.8449H84.1231Z" fill="url(#paint2_linear_10209_820)"/>
<path d="M96.0977 27.8449L105.125 0.523376H111.992L120.995 27.8449H114.818L112.798 21.0681H103.914L101.87 27.8449H96.0977ZM108.261 5.96865L105.054 16.7879H111.682L108.522 5.96865H108.261Z" fill="url(#paint3_linear_10209_820)"/>
<path d="M23.7095 15.8603V12.5551C23.7095 4.87459 19.1007 0 11.8548 0C4.60887 0 0 4.82704 0 12.5551V15.8603C0 23.5407 4.60887 28.3677 11.831 28.3677C13.1852 28.3677 14.4918 28.1537 15.6321 27.7733L12.9714 23.731C12.5675 23.8498 12.1398 23.945 11.6884 23.945C8.21992 23.8737 5.67792 21.2579 5.67792 15.9554V12.5075C5.67792 7.37133 8.31492 4.7557 11.8548 4.7557C15.4183 4.7557 18.0315 7.34756 18.0315 12.5075V15.9554C18.0315 18.0241 17.5802 19.6648 16.8437 20.8537L20.0034 25.3716L20.0272 25.4192C22.3791 23.2553 23.7095 19.974 23.7095 15.8603Z" fill="url(#paint4_linear_10209_820)"/>
<path d="M19.3622 28.9383C18.5545 29.4852 17.4615 29.2712 16.9152 28.4628L13.2328 23.0412C12.6864 22.2328 12.9002 21.139 13.7079 20.5922C14.5157 20.0452 15.6085 20.2592 16.155 21.0677L19.8373 26.4892C20.36 27.2976 20.1461 28.3915 19.3622 28.9383Z" fill="url(#paint5_linear_10209_820)"/>
<path d="M127.422 27.8559L135.969 0H142.447L150.993 27.8559H145.129L143.229 20.9295H134.824L132.897 27.8559H127.422ZM138.929 5.57118L135.913 16.6232H142.169L139.181 5.57118H138.929Z" fill="black"/>
<path d="M170.038 9.16923C169.689 6.35462 167.592 4.72969 164.735 4.72969C161.325 4.72969 158.907 7.08002 158.907 12.2159V15.4948C158.907 19.9053 160.568 23.1261 164.793 23.1261C168.145 23.1261 170.215 21.0369 170.215 18.4835V16.9747H164.939V12.7962H175.635V18.1062C175.635 22.4298 172.778 27.8559 164.705 27.8559C156.662 27.8559 153.135 22.5748 153.135 15.4948V12.1579C153.135 4.78772 157.449 0 164.793 0C171.905 0 175.402 4.52658 175.576 9.16923H170.038Z" fill="black"/>
<path d="M197.063 27.8559H179.921V0H197.063V4.78819H185.455V11.564H196.382V16.0209H185.455V23.0978H197.063V27.8559Z" fill="black"/>
<path d="M202.418 27.8559V0H207.031L218.375 17.888H218.575V0H223.847V27.8559H219.263L207.891 9.87754H207.689V27.8559H202.418Z" fill="black"/>
<path d="M234.024 15.4948C234.024 20.6597 236.273 23.0972 239.796 23.0972C243.261 23.0972 245.037 20.8048 245.037 18.0193H250.632V18.5996C250.632 23.4744 246.694 27.8559 239.708 27.8559C232.426 27.8559 228.132 23.3002 228.132 15.4658V12.4481C228.132 4.61362 232.455 0 239.738 0C246.517 0 250.632 4.32346 250.632 9.51739V10.0978H245.066C245.066 7.34119 243.231 4.78772 239.796 4.78772C236.333 4.78772 234.054 7.31216 234.054 12.4772V15.4948H234.024Z" fill="black"/>
<path d="M259.597 27.8559V17.5568L250.631 0H256.878L262.372 11.6844H262.575L268.099 0H274.202L265.236 17.4061V27.8559H259.597Z" fill="black"/>
</g>
<defs>
<linearGradient id="paint0_linear_10209_820" x1="39.0805" y1="0.523533" x2="39.0805" y2="28.3681" gradientUnits="userSpaceOnUse">
<stop stop-color="#F4A21A"/>
<stop offset="1" stop-color="#FFDD00"/>
</linearGradient>
<linearGradient id="paint1_linear_10209_820" x1="65.4748" y1="0.52353" x2="65.4748" y2="27.845" gradientUnits="userSpaceOnUse">
<stop stop-color="#F4A21A"/>
<stop offset="1" stop-color="#FFDD00"/>
</linearGradient>
<linearGradient id="paint2_linear_10209_820" x1="87.0216" y1="0.52353" x2="87.0216" y2="27.845" gradientUnits="userSpaceOnUse">
<stop stop-color="#F4A21A"/>
<stop offset="1" stop-color="#FFDD00"/>
</linearGradient>
<linearGradient id="paint3_linear_10209_820" x1="108.546" y1="0.52353" x2="108.546" y2="27.845" gradientUnits="userSpaceOnUse">
<stop stop-color="#F4A21A"/>
<stop offset="1" stop-color="#FFDD00"/>
</linearGradient>
<linearGradient id="paint4_linear_10209_820" x1="11.8548" y1="0.000159974" x2="11.8548" y2="28.3678" gradientUnits="userSpaceOnUse">
<stop stop-color="#F4A21A"/>
<stop offset="1" stop-color="#FFDD00"/>
</linearGradient>
<linearGradient id="paint5_linear_10209_820" x1="16.5268" y1="20.2891" x2="16.5268" y2="29.2414" gradientUnits="userSpaceOnUse">
<stop stop-color="#F4A21A"/>
<stop offset="1" stop-color="#FFDD00"/>
</linearGradient>
<clipPath id="clip0_10209_820">
<rect width="274.615" height="30" fill="white"/>
</clipPath>
</defs>
</svg>
