<svg width="20" height="21" viewBox="0 0 20 21" fill="none" xmlns="http://www.w3.org/2000/svg">
<path d="M19.4296 14.6327L15.0546 12.7577C14.8677 12.678 14.6599 12.6612 14.4627 12.7099C14.2654 12.7585 14.0893 12.8698 13.9608 13.0272L12.0233 15.3944C8.98248 13.9607 6.53535 11.5136 5.10165 8.47283L7.46888 6.5353C7.62657 6.40705 7.73818 6.23091 7.78681 6.03355C7.83545 5.8362 7.81846 5.62837 7.73842 5.44153L5.86338 1.06645C5.77554 0.865046 5.62016 0.700605 5.42406 0.601483C5.22796 0.502361 5.00341 0.474773 4.78915 0.523474L0.726575 1.46099C0.519997 1.50869 0.335688 1.62501 0.203728 1.79095C0.0717689 1.95689 -4.75872e-05 2.16266 2.36575e-08 2.37468C2.36575e-08 12.3944 8.12123 20.5 18.1253 20.5C18.3374 20.5001 18.5433 20.4284 18.7093 20.2964C18.8753 20.1644 18.9917 19.9801 19.0394 19.7734L19.9769 15.7109C20.0253 15.4955 19.9971 15.2701 19.8972 15.0733C19.7973 14.8765 19.632 14.7207 19.4296 14.6327Z" fill="#AD7314"/>
</svg>
