<svg width="13" height="14" viewBox="0 0 13 14" fill="none" xmlns="http://www.w3.org/2000/svg">
<path d="M12.6414 6.12381C13.2095 5.5406 12.8798 4.55928 12.0748 4.43736L9.34348 4.02366C9.01297 3.9736 8.72932 3.7617 8.58758 3.45895L7.40566 0.934431C7.0461 0.166444 5.9539 0.166443 5.59434 0.934431L4.41242 3.45895C4.27068 3.7617 3.98703 3.9736 3.65652 4.02366L0.925196 4.43736C0.120246 4.55928 -0.209453 5.5406 0.358593 6.12381L2.39866 8.21834C2.61967 8.44524 2.72011 8.76344 2.66941 9.07611L2.20011 11.9707C2.06661 12.7941 2.94049 13.4094 3.67067 13.0061L6.01655 11.7105C6.31743 11.5444 6.68257 11.5444 6.98345 11.7105L9.32933 13.0061C10.0595 13.4094 10.9334 12.7941 10.7999 11.9707L10.3306 9.07611C10.2799 8.76344 10.3803 8.44524 10.6013 8.21834L12.6414 6.12381Z" fill="#FFC400"/>
</svg>
